<?xml version="1.0" encoding="UTF-8" standalone="no"?>
<!-- Created with Inkscape (http://www.inkscape.org/) -->

<svg
   width="200mm"
   height="200mm"
   viewBox="0 0 200 200"
   version="1.1"
   id="svg1"
   inkscape:version="1.3.2 (091e20e, 2023-11-25, custom)"
   sodipodi:docname="DNK_Younger_Futhark_dark.svg"
   inkscape:export-filename="DNK_Younger_Futhark_dark.png"
   inkscape:export-xdpi="96"
   inkscape:export-ydpi="96"
   xmlns:inkscape="http://www.inkscape.org/namespaces/inkscape"
   xmlns:sodipodi="http://sodipodi.sourceforge.net/DTD/sodipodi-0.dtd"
   xmlns="http://www.w3.org/2000/svg"
   xmlns:svg="http://www.w3.org/2000/svg">
  <sodipodi:namedview
     id="namedview1"
     pagecolor="#ffffff"
     bordercolor="#000000"
     borderopacity="0.25"
     inkscape:showpageshadow="2"
     inkscape:pageopacity="0.0"
     inkscape:pagecheckerboard="0"
     inkscape:deskcolor="#d1d1d1"
     inkscape:document-units="mm"
     inkscape:zoom="0.35355339"
     inkscape:cx="2305.1681"
     inkscape:cy="1783.3233"
     inkscape:window-width="3840"
     inkscape:window-height="2454"
     inkscape:window-x="1609"
     inkscape:window-y="-11"
     inkscape:window-maximized="1"
     inkscape:current-layer="layer1" />
  <defs
     id="defs1" />
  <g
     inkscape:label="Layer 1"
     inkscape:groupmode="layer"
     id="layer1">
    <path
       id="text1-9"
       style="font-size:176.389px;font-family:'Lucida Fax';-inkscape-font-specification:'Lucida Fax';fill:#ffffff;stroke:#000000;stroke-width:0;fill-opacity:1"
       d="M 100.00037,17.539 65.033,45.27219 v 16.27808 l 27.732672,-21.8767 v 69.31411 L 65.049536,98.91698 v 14.38362 l 27.716136,9.9844 0.0165,59.17572 h 14.452548 v -53.88457 l 27.75002,9.8733 v -14.21102 l -13.80691,-4.97386 c 3.36839,-1.30359 6.59874,-2.81637 9.67331,-4.56612 7.11986,-4.0767 13.20655,-9.01485 18.25936,-14.81409 5.11022,-5.85666 9.07208,-12.48847 11.88557,-19.89542 2.8135,-7.40696 4.2199,-15.3018 4.2199,-23.68486 v -1.03353 h -15.15825 v 1.37821 c 0,7.63662 -1.14853,14.41181 -3.44526,20.32589 -2.23931,5.85666 -5.31102,10.93818 -9.21546,15.24455 -3.84702,4.30637 -8.35453,7.86647 -13.52217,10.67997 -5.16765,2.81349 -10.78346,4.93779 -16.64011,6.37325 0.008,-23.19993 0,-69.59885 0,-69.59885 l 27.73349,21.8767 V 45.27219 Z"
       sodipodi:nodetypes="ccccccccccccccccssccsccsccccc" />
  </g>
</svg>
