<?xml version="1.0" encoding="UTF-8" standalone="no"?>
<!-- Created with Inkscape (http://www.inkscape.org/) -->

<svg
   width="200mm"
   height="200mm"
   viewBox="0 0 200 200"
   version="1.1"
   id="svg1"
   inkscape:version="1.3.2 (091e20e, 2023-11-25, custom)"
   sodipodi:docname="DNK_Younger_Futhark.svg"
   inkscape:export-filename="DNK_Younger_Futhark_favicon.png"
   inkscape:export-xdpi="96"
   inkscape:export-ydpi="96"
   xmlns:inkscape="http://www.inkscape.org/namespaces/inkscape"
   xmlns:sodipodi="http://sodipodi.sourceforge.net/DTD/sodipodi-0.dtd"
   xmlns="http://www.w3.org/2000/svg"
   xmlns:svg="http://www.w3.org/2000/svg">
  <sodipodi:namedview
     id="namedview1"
     pagecolor="#ffffff"
     bordercolor="#000000"
     borderopacity="0.25"
     inkscape:showpageshadow="2"
     inkscape:pageopacity="0.0"
     inkscape:pagecheckerboard="0"
     inkscape:deskcolor="#d1d1d1"
     inkscape:document-units="mm"
     inkscape:zoom="2.8284271"
     inkscape:cx="388.20162"
     inkscape:cy="401.45988"
     inkscape:window-width="3840"
     inkscape:window-height="2454"
     inkscape:window-x="1609"
     inkscape:window-y="-11"
     inkscape:window-maximized="1"
     inkscape:current-layer="layer1" />
  <defs
     id="defs1" />
  <g
     inkscape:label="Layer 1"
     inkscape:groupmode="layer"
     id="layer1">
    <path
       id="text1"
       style="font-size:176.389px;font-family:'Lucida Fax';-inkscape-font-specification:'Lucida Fax';fill:#1a1a1a;stroke:#000000;stroke-width:0"
       d="M 100.00061,17.538981 65.03324,45.272172 V 61.550248 L 92.765914,39.673547 V 108.98766 L 65.049776,98.91696 v 14.38362 l 27.716138,9.9844 0.01654,59.17572 H 107.235 v -53.88457 l 27.75002,9.8733 v -14.21102 l -13.80691,-4.97386 c 3.36839,-1.30359 6.59874,-2.81637 9.67331,-4.56612 7.11986,-4.0767 13.20655,-9.01485 18.25936,-14.814088 5.11022,-5.85666 9.07208,-12.488473 11.88557,-19.895426 2.8135,-7.406953 4.2199,-15.301796 4.2199,-23.684859 V 55.270528 H 150.058 v 1.378211 c 0,7.636626 -1.14853,14.411813 -3.44526,20.325891 -2.23931,5.856661 -5.31102,10.93818 -9.21546,15.244547 -3.84702,4.306369 -8.35453,7.866473 -13.52217,10.679973 -5.16765,2.81349 -10.78346,4.93779 -16.64011,6.37325 0.008,-23.199925 0,-69.598853 0,-69.598853 l 27.73349,21.876701 V 45.272172 Z"
       sodipodi:nodetypes="ccccccccccccccccssccsccsccccc" />
  </g>
</svg>
